<?xml version="1.0" encoding="UTF-8"?>
<svg id="Layer_1" xmlns="http://www.w3.org/2000/svg" version="1.1" viewBox="0 0 80 80">
  <!-- Generator: Adobe Illustrator 29.6.1, SVG Export Plug-In . SVG Version: 2.1.1 Build 9)  -->
  <defs>
    <style>
      .st0 {
        fill: #021695;
      }

      .st1 {
        fill: none;
        stroke: #021695;
        stroke-linecap: round;
        stroke-linejoin: round;
        stroke-width: 4px;
      }
    </style>
  </defs>
  <path class="st0" d="M40,4c19.9,0,36,16.1,36,36s-16.1,36-36,36S4,59.9,4,40,20.1,4,40,4M40,0C17.9,0,0,17.9,0,40s17.9,40,40,40,40-17.9,40-40S62.1,0,40,0h0Z"/>
  <path class="st1" d="M62.7,36.3c0,6.3-5.1,11.3-11.3,11.3s-11.3-5.1-11.3-11.3"/>
  <line class="st1" x1="44.7" y1="20.5" x2="44.7" y2="26.8"/>
  <line class="st1" x1="57.9" y1="20.5" x2="57.9" y2="26.8"/>
</svg>