<?xml version="1.0" encoding="UTF-8"?>
<svg id="uuid-7e2c3fe5-031d-41ac-84b3-887794ab76dd" data-name="Layer 1" xmlns="http://www.w3.org/2000/svg" viewBox="0 0 405.585 333.453">
  <defs>
    <style>
      .uuid-ec4cb112-9b4f-4aa7-846e-da7bf51f9531 {
        fill: #021695;
      }
    </style>
  </defs>
  <g>
    <path class="uuid-ec4cb112-9b4f-4aa7-846e-da7bf51f9531" d="M21.348,288.746c11.239,0,16.24,6.484,16.24,14.079s-5.002,14.079-16.24,14.079h-7.78v15.622H3.441v-43.78h17.907ZM27.215,302.825c0-3.335-1.79-5.558-6.484-5.558h-7.224v11.115h7.224c4.693,0,6.484-2.223,6.484-5.557Z"/>
    <path class="uuid-ec4cb112-9b4f-4aa7-846e-da7bf51f9531" d="M46.972,299.552h8.583l.556,4.94c1.297-3.52,4.755-5.31,8.028-5.31,1.667,0,2.469.185,3.149.309v9.263c-1.05-.309-2.038-.432-3.087-.432-5.187,0-7.287,3.458-7.287,8.583v15.622h-9.942v-32.974Z"/>
    <path class="uuid-ec4cb112-9b4f-4aa7-846e-da7bf51f9531" d="M86.49,287.82v8.213h-10.065v-8.213h10.065ZM86.428,299.552v32.974h-9.942v-32.974h9.942Z"/>
    <path class="uuid-ec4cb112-9b4f-4aa7-846e-da7bf51f9531" d="M98.468,299.552h8.583l.494,4.878c1.359-3.643,5.187-5.743,9.757-5.743,7.41,0,11.3,5.125,11.3,12.288v21.55h-9.942v-20.192c0-3.396-1.729-5.002-4.384-5.002-4.075,0-5.866,3.52-5.866,7.842v17.351h-9.942v-32.974Z"/>
    <path class="uuid-ec4cb112-9b4f-4aa7-846e-da7bf51f9531" d="M143.359,322.461v-14.943h-6.299v-7.966h6.299v-7.904l9.942-2.593v10.497h7.718v7.966h-7.718v12.967c0,2.408.864,3.952,3.952,3.952,1.667,0,2.346-.185,3.952-.494v7.904c-.742.371-2.964,1.297-6.978,1.297-7.102,0-10.868-4.014-10.868-10.682Z"/>
    <path class="uuid-ec4cb112-9b4f-4aa7-846e-da7bf51f9531" d="M185.715,318.509h10.127c.308,4.261,3.335,6.546,8.398,6.546,5.186,0,7.595-2.347,7.595-5.187,0-2.038-1.544-3.829-5.186-4.323l-6.299-.803c-8.151-1.05-13.709-5.125-13.709-12.967,0-7.41,6.793-13.956,17.413-13.956,10.56,0,17.105,5.866,17.537,14.017h-10.189c-.062-3.335-2.532-5.743-7.41-5.743-4.754,0-7.348,2.347-7.348,4.94,0,2.347,1.729,3.829,5.126,4.261l5.68.741c8.09,1.05,14.45,4.878,14.45,13.091,0,8.83-7.842,14.326-17.97,14.326-10.497,0-17.969-6.052-18.216-14.944Z"/>
    <path class="uuid-ec4cb112-9b4f-4aa7-846e-da7bf51f9531" d="M235.42,322.461v-14.943h-6.298v-7.966h6.298v-7.904l9.943-2.593v10.497h7.718v7.966h-7.718v12.967c0,2.408.864,3.952,3.952,3.952,1.667,0,2.346-.185,3.952-.494v7.904c-.742.371-2.964,1.297-6.979,1.297-7.101,0-10.868-4.014-10.868-10.682Z"/>
    <path class="uuid-ec4cb112-9b4f-4aa7-846e-da7bf51f9531" d="M262.96,321.041v-21.489h9.942v20.501c0,2.964,1.791,4.816,4.508,4.816,4.509,0,5.558-3.767,5.558-8.089v-17.228h9.942v32.974h-8.46l-.371-4.817c-1.42,3.767-5.557,5.681-9.201,5.681-7.656,0-11.917-5.249-11.917-12.35Z"/>
    <path class="uuid-ec4cb112-9b4f-4aa7-846e-da7bf51f9531" d="M310.752,331.353c-4.94-2.964-7.411-8.645-7.411-15.314,0-7.286,2.779-12.597,7.411-15.375,2.161-1.297,4.754-1.976,7.656-1.976,5.372,0,7.656,2.655,8.336,4.57v-15.438h9.942v44.706h-8.213l-.308-4.755c-1.112,2.964-4.138,5.619-9.695,5.619-3.149,0-5.557-.742-7.718-2.038ZM324.459,323.696c1.791-1.544,2.717-3.828,2.717-7.657s-.988-5.99-2.717-7.595c-.864-.803-2.347-1.482-4.26-1.482-1.853,0-3.335.679-4.261,1.482-1.729,1.544-2.655,3.829-2.655,7.595,0,3.829.925,6.113,2.655,7.657.926.803,2.408,1.544,4.261,1.544,1.913,0,3.396-.803,4.26-1.544Z"/>
    <path class="uuid-ec4cb112-9b4f-4aa7-846e-da7bf51f9531" d="M358.728,287.82v8.213h-10.065v-8.213h10.065ZM358.666,299.552v32.974h-9.942v-32.974h9.942Z"/>
    <path class="uuid-ec4cb112-9b4f-4aa7-846e-da7bf51f9531" d="M373.113,327.957c-2.656-3.088-4.076-7.225-4.076-11.918,0-4.755,1.42-8.83,4.076-11.917,2.346-2.717,6.298-5.434,12.473-5.434s10.126,2.717,12.473,5.434c2.655,3.088,4.075,7.163,4.075,11.917,0,4.693-1.42,8.83-4.075,11.918-2.347,2.716-6.299,5.434-12.473,5.434s-10.127-2.717-12.473-5.434ZM390.649,322.461c1.111-1.729,1.482-3.52,1.482-6.422,0-2.964-.371-4.693-1.482-6.422-.988-1.482-2.655-2.532-5.063-2.532s-4.075,1.05-5.063,2.532c-1.112,1.729-1.482,3.458-1.482,6.422,0,2.902.37,4.693,1.482,6.422.988,1.482,2.655,2.532,5.063,2.532s4.075-1.05,5.063-2.532Z"/>
  </g>
  <g>
    <circle class="uuid-ec4cb112-9b4f-4aa7-846e-da7bf51f9531" cx="257.648" cy="162.139" r="3.712"/>
    <path class="uuid-ec4cb112-9b4f-4aa7-846e-da7bf51f9531" d="M247.394,186.36c2.05,0,3.712-1.662,3.712-3.712s-1.662-3.712-3.712-3.712-3.712,1.662-3.712,3.712,1.662,3.712,3.712,3.712Z"/>
    <circle class="uuid-ec4cb112-9b4f-4aa7-846e-da7bf51f9531" cx="252.521" cy="172.393" r="3.712"/>
    <circle class="uuid-ec4cb112-9b4f-4aa7-846e-da7bf51f9531" cx="242.267" cy="192.902" r="3.712"/>
    <circle class="uuid-ec4cb112-9b4f-4aa7-846e-da7bf51f9531" cx="257.648" cy="203.157" r="3.712"/>
    <circle class="uuid-ec4cb112-9b4f-4aa7-846e-da7bf51f9531" cx="252.521" cy="192.902" r="3.712"/>
    <path class="uuid-ec4cb112-9b4f-4aa7-846e-da7bf51f9531" d="M243.682,203.157c0,2.05,1.662,3.712,3.712,3.712s3.712-1.662,3.712-3.712-1.662-3.712-3.712-3.712-3.712,1.662-3.712,3.712Z"/>
    <circle class="uuid-ec4cb112-9b4f-4aa7-846e-da7bf51f9531" cx="283.285" cy="172.393" r="3.712"/>
    <circle class="uuid-ec4cb112-9b4f-4aa7-846e-da7bf51f9531" cx="273.03" cy="172.393" r="3.712"/>
    <circle class="uuid-ec4cb112-9b4f-4aa7-846e-da7bf51f9531" cx="278.157" cy="182.648" r="3.712"/>
    <circle class="uuid-ec4cb112-9b4f-4aa7-846e-da7bf51f9531" cx="267.903" cy="182.648" r="3.712"/>
    <path class="uuid-ec4cb112-9b4f-4aa7-846e-da7bf51f9531" d="M284.7,182.648c0,2.05,1.662,3.712,3.712,3.712s3.712-1.662,3.712-3.712-1.662-3.712-3.712-3.712-3.712,1.662-3.712,3.712Z"/>
    <circle class="uuid-ec4cb112-9b4f-4aa7-846e-da7bf51f9531" cx="267.903" cy="162.139" r="3.712"/>
    <circle class="uuid-ec4cb112-9b4f-4aa7-846e-da7bf51f9531" cx="273.03" cy="192.902" r="3.712"/>
    <path class="uuid-ec4cb112-9b4f-4aa7-846e-da7bf51f9531" d="M284.7,203.157c0,2.05,1.662,3.712,3.712,3.712s3.712-1.662,3.712-3.712-1.662-3.712-3.712-3.712-3.712,1.662-3.712,3.712Z"/>
    <circle class="uuid-ec4cb112-9b4f-4aa7-846e-da7bf51f9531" cx="283.285" cy="192.902" r="3.712"/>
    <circle class="uuid-ec4cb112-9b4f-4aa7-846e-da7bf51f9531" cx="278.157" cy="203.157" r="3.712"/>
    <circle class="uuid-ec4cb112-9b4f-4aa7-846e-da7bf51f9531" cx="267.903" cy="203.157" r="3.712"/>
    <circle class="uuid-ec4cb112-9b4f-4aa7-846e-da7bf51f9531" cx="262.776" cy="192.902" r="3.712"/>
    <circle class="uuid-ec4cb112-9b4f-4aa7-846e-da7bf51f9531" cx="339.684" cy="80.103" r="3.712"/>
    <circle class="uuid-ec4cb112-9b4f-4aa7-846e-da7bf51f9531" cx="319.175" cy="100.612" r="3.712"/>
    <circle class="uuid-ec4cb112-9b4f-4aa7-846e-da7bf51f9531" cx="324.302" cy="90.358" r="3.712"/>
    <circle class="uuid-ec4cb112-9b4f-4aa7-846e-da7bf51f9531" cx="262.776" cy="172.393" r="3.712"/>
    <circle class="uuid-ec4cb112-9b4f-4aa7-846e-da7bf51f9531" cx="257.648" cy="182.648" r="3.712"/>
    <path class="uuid-ec4cb112-9b4f-4aa7-846e-da7bf51f9531" d="M283.285,155.597c2.05,0,3.712-1.662,3.712-3.712s-1.662-3.712-3.712-3.712-3.712,1.662-3.712,3.712,1.662,3.712,3.712,3.712Z"/>
    <path class="uuid-ec4cb112-9b4f-4aa7-846e-da7bf51f9531" d="M284.7,162.139c0,2.05,1.662,3.712,3.712,3.712s3.712-1.662,3.712-3.712-1.662-3.712-3.712-3.712-3.712,1.662-3.712,3.712Z"/>
    <path class="uuid-ec4cb112-9b4f-4aa7-846e-da7bf51f9531" d="M288.412,145.342c2.05,0,3.712-1.662,3.712-3.712s-1.662-3.712-3.712-3.712-3.712,1.662-3.712,3.712,1.662,3.712,3.712,3.712Z"/>
    <path class="uuid-ec4cb112-9b4f-4aa7-846e-da7bf51f9531" d="M273.03,155.597c2.05,0,3.712-1.662,3.712-3.712s-1.662-3.712-3.712-3.712-3.712,1.662-3.712,3.712,1.662,3.712,3.712,3.712Z"/>
    <circle class="uuid-ec4cb112-9b4f-4aa7-846e-da7bf51f9531" cx="278.157" cy="162.139" r="3.712"/>
    <circle class="uuid-ec4cb112-9b4f-4aa7-846e-da7bf51f9531" cx="257.648" cy="244.175" r="3.712"/>
    <circle class="uuid-ec4cb112-9b4f-4aa7-846e-da7bf51f9531" cx="267.903" cy="244.175" r="3.712"/>
    <circle class="uuid-ec4cb112-9b4f-4aa7-846e-da7bf51f9531" cx="273.03" cy="233.92" r="3.712"/>
    <circle class="uuid-ec4cb112-9b4f-4aa7-846e-da7bf51f9531" cx="262.776" cy="233.92" r="3.712"/>
    <circle class="uuid-ec4cb112-9b4f-4aa7-846e-da7bf51f9531" cx="278.157" cy="244.175" r="3.712"/>
    <circle class="uuid-ec4cb112-9b4f-4aa7-846e-da7bf51f9531" cx="293.539" cy="233.92" r="3.712"/>
    <circle class="uuid-ec4cb112-9b4f-4aa7-846e-da7bf51f9531" cx="283.285" cy="233.92" r="3.712"/>
    <path class="uuid-ec4cb112-9b4f-4aa7-846e-da7bf51f9531" d="M288.412,240.463c-2.05,0-3.712,1.662-3.712,3.712s1.662,3.712,3.712,3.712,3.712-1.662,3.712-3.712-1.662-3.712-3.712-3.712Z"/>
    <circle class="uuid-ec4cb112-9b4f-4aa7-846e-da7bf51f9531" cx="298.666" cy="244.175" r="3.712"/>
    <path class="uuid-ec4cb112-9b4f-4aa7-846e-da7bf51f9531" d="M247.394,240.463c-2.05,0-3.712,1.662-3.712,3.712s1.662,3.712,3.712,3.712,3.712-1.662,3.712-3.712-1.662-3.712-3.712-3.712Z"/>
    <circle class="uuid-ec4cb112-9b4f-4aa7-846e-da7bf51f9531" cx="242.267" cy="233.92" r="3.712"/>
    <circle class="uuid-ec4cb112-9b4f-4aa7-846e-da7bf51f9531" cx="252.521" cy="233.92" r="3.712"/>
    <circle class="uuid-ec4cb112-9b4f-4aa7-846e-da7bf51f9531" cx="324.302" cy="233.92" r="3.712"/>
    <circle class="uuid-ec4cb112-9b4f-4aa7-846e-da7bf51f9531" cx="303.794" cy="233.92" r="3.712"/>
    <circle class="uuid-ec4cb112-9b4f-4aa7-846e-da7bf51f9531" cx="349.939" cy="223.666" r="3.712"/>
    <circle class="uuid-ec4cb112-9b4f-4aa7-846e-da7bf51f9531" cx="314.048" cy="233.92" r="3.712"/>
    <circle class="uuid-ec4cb112-9b4f-4aa7-846e-da7bf51f9531" cx="308.921" cy="244.175" r="3.712"/>
    <circle class="uuid-ec4cb112-9b4f-4aa7-846e-da7bf51f9531" cx="319.175" cy="244.175" r="3.712"/>
    <path class="uuid-ec4cb112-9b4f-4aa7-846e-da7bf51f9531" d="M334.557,230.208c-2.05,0-3.712,1.662-3.712,3.712s1.662,3.712,3.712,3.712,3.712-1.662,3.712-3.712-1.662-3.712-3.712-3.712Z"/>
    <circle class="uuid-ec4cb112-9b4f-4aa7-846e-da7bf51f9531" cx="303.794" cy="213.411" r="3.712"/>
    <circle class="uuid-ec4cb112-9b4f-4aa7-846e-da7bf51f9531" cx="298.666" cy="223.666" r="3.712"/>
    <circle class="uuid-ec4cb112-9b4f-4aa7-846e-da7bf51f9531" cx="293.539" cy="213.411" r="3.712"/>
    <circle class="uuid-ec4cb112-9b4f-4aa7-846e-da7bf51f9531" cx="308.921" cy="223.666" r="3.712"/>
    <path class="uuid-ec4cb112-9b4f-4aa7-846e-da7bf51f9531" d="M288.412,227.378c2.05,0,3.712-1.662,3.712-3.712s-1.662-3.712-3.712-3.712-3.712,1.662-3.712,3.712,1.662,3.712,3.712,3.712Z"/>
    <circle class="uuid-ec4cb112-9b4f-4aa7-846e-da7bf51f9531" cx="319.175" cy="223.666" r="3.712"/>
    <circle class="uuid-ec4cb112-9b4f-4aa7-846e-da7bf51f9531" cx="257.648" cy="223.666" r="3.712"/>
    <circle class="uuid-ec4cb112-9b4f-4aa7-846e-da7bf51f9531" cx="252.521" cy="213.411" r="3.712"/>
    <circle class="uuid-ec4cb112-9b4f-4aa7-846e-da7bf51f9531" cx="329.43" cy="223.666" r="3.712"/>
    <circle class="uuid-ec4cb112-9b4f-4aa7-846e-da7bf51f9531" cx="262.776" cy="213.411" r="3.712"/>
    <path class="uuid-ec4cb112-9b4f-4aa7-846e-da7bf51f9531" d="M243.682,223.666c0,2.05,1.662,3.712,3.712,3.712s3.712-1.662,3.712-3.712-1.662-3.712-3.712-3.712-3.712,1.662-3.712,3.712Z"/>
    <circle class="uuid-ec4cb112-9b4f-4aa7-846e-da7bf51f9531" cx="273.03" cy="213.411" r="3.712"/>
    <circle class="uuid-ec4cb112-9b4f-4aa7-846e-da7bf51f9531" cx="267.903" cy="223.666" r="3.712"/>
    <circle class="uuid-ec4cb112-9b4f-4aa7-846e-da7bf51f9531" cx="278.157" cy="223.666" r="3.712"/>
    <circle class="uuid-ec4cb112-9b4f-4aa7-846e-da7bf51f9531" cx="283.285" cy="213.411" r="3.712"/>
    <circle class="uuid-ec4cb112-9b4f-4aa7-846e-da7bf51f9531" cx="242.267" cy="213.411" r="3.712"/>
    <path class="uuid-ec4cb112-9b4f-4aa7-846e-da7bf51f9531" d="M252.521,107.154c-2.05,0-3.712,1.662-3.712,3.712s1.662,3.712,3.712,3.712,3.712-1.662,3.712-3.712-1.662-3.712-3.712-3.712Z"/>
    <circle class="uuid-ec4cb112-9b4f-4aa7-846e-da7bf51f9531" cx="339.684" cy="223.666" r="3.712"/>
  </g>
  <g>
    <circle class="uuid-ec4cb112-9b4f-4aa7-846e-da7bf51f9531" cx="98.704" cy="233.92" r="3.712"/>
    <path class="uuid-ec4cb112-9b4f-4aa7-846e-da7bf51f9531" d="M119.213,230.208c-2.05,0-3.712,1.662-3.712,3.712s1.662,3.712,3.712,3.712,3.712-1.662,3.712-3.712-1.662-3.712-3.712-3.712Z"/>
    <circle class="uuid-ec4cb112-9b4f-4aa7-846e-da7bf51f9531" cx="108.959" cy="233.92" r="3.712"/>
    <circle class="uuid-ec4cb112-9b4f-4aa7-846e-da7bf51f9531" cx="114.086" cy="223.666" r="3.712"/>
    <circle class="uuid-ec4cb112-9b4f-4aa7-846e-da7bf51f9531" cx="83.322" cy="223.666" r="3.712"/>
    <path class="uuid-ec4cb112-9b4f-4aa7-846e-da7bf51f9531" d="M69.356,223.666c0,2.05,1.662,3.712,3.712,3.712s3.712-1.662,3.712-3.712-1.662-3.712-3.712-3.712-3.712,1.662-3.712,3.712Z"/>
    <circle class="uuid-ec4cb112-9b4f-4aa7-846e-da7bf51f9531" cx="103.831" cy="223.666" r="3.712"/>
    <circle class="uuid-ec4cb112-9b4f-4aa7-846e-da7bf51f9531" cx="93.577" cy="223.666" r="3.712"/>
    <circle class="uuid-ec4cb112-9b4f-4aa7-846e-da7bf51f9531" cx="67.941" cy="213.411" r="3.712"/>
    <circle class="uuid-ec4cb112-9b4f-4aa7-846e-da7bf51f9531" cx="124.34" cy="223.666" r="3.712"/>
    <path class="uuid-ec4cb112-9b4f-4aa7-846e-da7bf51f9531" d="M119.213,114.579c2.05,0,3.712-1.662,3.712-3.712s-1.662-3.712-3.712-3.712-3.712,1.662-3.712,3.712,1.662,3.712,3.712,3.712Z"/>
    <circle class="uuid-ec4cb112-9b4f-4aa7-846e-da7bf51f9531" cx="103.831" cy="121.121" r="3.712"/>
    <circle class="uuid-ec4cb112-9b4f-4aa7-846e-da7bf51f9531" cx="42.305" cy="203.157" r="3.712"/>
    <path class="uuid-ec4cb112-9b4f-4aa7-846e-da7bf51f9531" d="M28.338,223.666c0,2.05,1.662,3.712,3.712,3.712s3.712-1.662,3.712-3.712-1.662-3.712-3.712-3.712-3.712,1.662-3.712,3.712Z"/>
    <circle class="uuid-ec4cb112-9b4f-4aa7-846e-da7bf51f9531" cx="42.305" cy="223.666" r="3.712"/>
    <circle class="uuid-ec4cb112-9b4f-4aa7-846e-da7bf51f9531" cx="47.432" cy="213.411" r="3.712"/>
    <circle class="uuid-ec4cb112-9b4f-4aa7-846e-da7bf51f9531" cx="37.177" cy="213.411" r="3.712"/>
    <circle class="uuid-ec4cb112-9b4f-4aa7-846e-da7bf51f9531" cx="52.559" cy="223.666" r="3.712"/>
    <circle class="uuid-ec4cb112-9b4f-4aa7-846e-da7bf51f9531" cx="52.559" cy="203.157" r="3.712"/>
    <circle class="uuid-ec4cb112-9b4f-4aa7-846e-da7bf51f9531" cx="57.686" cy="213.411" r="3.712"/>
    <circle class="uuid-ec4cb112-9b4f-4aa7-846e-da7bf51f9531" cx="149.976" cy="90.358" r="3.712"/>
    <circle class="uuid-ec4cb112-9b4f-4aa7-846e-da7bf51f9531" cx="62.813" cy="203.157" r="3.712"/>
    <circle class="uuid-ec4cb112-9b4f-4aa7-846e-da7bf51f9531" cx="62.813" cy="223.666" r="3.712"/>
    <circle class="uuid-ec4cb112-9b4f-4aa7-846e-da7bf51f9531" cx="134.595" cy="100.612" r="3.712"/>
    <circle class="uuid-ec4cb112-9b4f-4aa7-846e-da7bf51f9531" cx="88.45" cy="233.92" r="3.712"/>
    <circle class="uuid-ec4cb112-9b4f-4aa7-846e-da7bf51f9531" cx="83.322" cy="244.175" r="3.712"/>
    <circle class="uuid-ec4cb112-9b4f-4aa7-846e-da7bf51f9531" cx="134.595" cy="223.666" r="3.712"/>
    <circle class="uuid-ec4cb112-9b4f-4aa7-846e-da7bf51f9531" cx="42.305" cy="244.175" r="3.712"/>
    <path class="uuid-ec4cb112-9b4f-4aa7-846e-da7bf51f9531" d="M32.05,206.869c2.05,0,3.712-1.662,3.712-3.712s-1.662-3.712-3.712-3.712-3.712,1.662-3.712,3.712,1.662,3.712,3.712,3.712Z"/>
    <circle class="uuid-ec4cb112-9b4f-4aa7-846e-da7bf51f9531" cx="21.796" cy="203.157" r="3.712"/>
    <circle class="uuid-ec4cb112-9b4f-4aa7-846e-da7bf51f9531" cx="26.923" cy="213.411" r="3.712"/>
    <circle class="uuid-ec4cb112-9b4f-4aa7-846e-da7bf51f9531" cx="21.796" cy="223.666" r="3.712"/>
    <circle class="uuid-ec4cb112-9b4f-4aa7-846e-da7bf51f9531" cx="11.541" cy="223.666" r="3.712"/>
    <circle class="uuid-ec4cb112-9b4f-4aa7-846e-da7bf51f9531" cx="16.668" cy="213.411" r="3.712"/>
    <circle class="uuid-ec4cb112-9b4f-4aa7-846e-da7bf51f9531" cx="37.177" cy="192.902" r="3.712"/>
    <circle class="uuid-ec4cb112-9b4f-4aa7-846e-da7bf51f9531" cx="57.686" cy="192.902" r="3.712"/>
    <circle class="uuid-ec4cb112-9b4f-4aa7-846e-da7bf51f9531" cx="52.559" cy="182.648" r="3.712"/>
    <circle class="uuid-ec4cb112-9b4f-4aa7-846e-da7bf51f9531" cx="47.432" cy="192.902" r="3.712"/>
    <circle class="uuid-ec4cb112-9b4f-4aa7-846e-da7bf51f9531" cx="21.796" cy="244.175" r="3.712"/>
    <circle class="uuid-ec4cb112-9b4f-4aa7-846e-da7bf51f9531" cx="57.686" cy="233.92" r="3.712"/>
    <circle class="uuid-ec4cb112-9b4f-4aa7-846e-da7bf51f9531" cx="52.559" cy="244.175" r="3.712"/>
    <circle class="uuid-ec4cb112-9b4f-4aa7-846e-da7bf51f9531" cx="47.432" cy="233.92" r="3.712"/>
    <circle class="uuid-ec4cb112-9b4f-4aa7-846e-da7bf51f9531" cx="62.813" cy="244.175" r="3.712"/>
    <path class="uuid-ec4cb112-9b4f-4aa7-846e-da7bf51f9531" d="M73.068,240.463c-2.05,0-3.712,1.662-3.712,3.712s1.662,3.712,3.712,3.712,3.712-1.662,3.712-3.712-1.662-3.712-3.712-3.712Z"/>
    <circle class="uuid-ec4cb112-9b4f-4aa7-846e-da7bf51f9531" cx="67.941" cy="233.92" r="3.712"/>
    <circle class="uuid-ec4cb112-9b4f-4aa7-846e-da7bf51f9531" cx="26.923" cy="233.92" r="3.712"/>
    <circle class="uuid-ec4cb112-9b4f-4aa7-846e-da7bf51f9531" cx="37.177" cy="233.92" r="3.712"/>
    <circle class="uuid-ec4cb112-9b4f-4aa7-846e-da7bf51f9531" cx="16.668" cy="233.92" r="3.712"/>
    <path class="uuid-ec4cb112-9b4f-4aa7-846e-da7bf51f9531" d="M81.907,233.92c0-2.05-1.662-3.712-3.712-3.712s-3.712,1.662-3.712,3.712,1.662,3.712,3.712,3.712,3.712-1.662,3.712-3.712Z"/>
    <path class="uuid-ec4cb112-9b4f-4aa7-846e-da7bf51f9531" d="M32.05,240.463c-2.05,0-3.712,1.662-3.712,3.712s1.662,3.712,3.712,3.712,3.712-1.662,3.712-3.712-1.662-3.712-3.712-3.712Z"/>
    <circle class="uuid-ec4cb112-9b4f-4aa7-846e-da7bf51f9531" cx="49.897" cy="125.486" r="3.712"/>
    <circle class="uuid-ec4cb112-9b4f-4aa7-846e-da7bf51f9531" cx="44.77" cy="74.213" r="3.712"/>
    <circle class="uuid-ec4cb112-9b4f-4aa7-846e-da7bf51f9531" cx="49.897" cy="84.468" r="3.712"/>
    <circle class="uuid-ec4cb112-9b4f-4aa7-846e-da7bf51f9531" cx="34.515" cy="74.213" r="3.712"/>
    <circle class="uuid-ec4cb112-9b4f-4aa7-846e-da7bf51f9531" cx="39.642" cy="104.977" r="3.712"/>
    <circle class="uuid-ec4cb112-9b4f-4aa7-846e-da7bf51f9531" cx="39.642" cy="84.468" r="3.712"/>
    <circle class="uuid-ec4cb112-9b4f-4aa7-846e-da7bf51f9531" cx="55.024" cy="94.722" r="3.712"/>
    <circle class="uuid-ec4cb112-9b4f-4aa7-846e-da7bf51f9531" cx="55.024" cy="115.231" r="3.712"/>
    <circle class="uuid-ec4cb112-9b4f-4aa7-846e-da7bf51f9531" cx="55.024" cy="74.213" r="3.712"/>
    <circle class="uuid-ec4cb112-9b4f-4aa7-846e-da7bf51f9531" cx="44.77" cy="94.722" r="3.712"/>
    <circle class="uuid-ec4cb112-9b4f-4aa7-846e-da7bf51f9531" cx="60.151" cy="104.977" r="3.712"/>
    <circle class="uuid-ec4cb112-9b4f-4aa7-846e-da7bf51f9531" cx="60.151" cy="84.468" r="3.712"/>
    <circle class="uuid-ec4cb112-9b4f-4aa7-846e-da7bf51f9531" cx="49.897" cy="63.959" r="3.712"/>
    <circle class="uuid-ec4cb112-9b4f-4aa7-846e-da7bf51f9531" cx="55.024" cy="135.74" r="3.712"/>
    <circle class="uuid-ec4cb112-9b4f-4aa7-846e-da7bf51f9531" cx="39.642" cy="63.959" r="3.712"/>
    <circle class="uuid-ec4cb112-9b4f-4aa7-846e-da7bf51f9531" cx="60.151" cy="63.959" r="3.712"/>
    <circle class="uuid-ec4cb112-9b4f-4aa7-846e-da7bf51f9531" cx="60.151" cy="125.486" r="3.712"/>
    <circle class="uuid-ec4cb112-9b4f-4aa7-846e-da7bf51f9531" cx="44.77" cy="115.231" r="3.712"/>
    <path class="uuid-ec4cb112-9b4f-4aa7-846e-da7bf51f9531" d="M15.421,84.468c0,2.05,1.662,3.712,3.712,3.712s3.712-1.662,3.712-3.712-1.662-3.712-3.712-3.712-3.712,1.662-3.712,3.712Z"/>
    <circle class="uuid-ec4cb112-9b4f-4aa7-846e-da7bf51f9531" cx="14.006" cy="74.213" r="3.712"/>
    <circle class="uuid-ec4cb112-9b4f-4aa7-846e-da7bf51f9531" cx="49.897" cy="104.977" r="3.712"/>
    <circle class="uuid-ec4cb112-9b4f-4aa7-846e-da7bf51f9531" cx="24.261" cy="94.722" r="3.712"/>
    <circle class="uuid-ec4cb112-9b4f-4aa7-846e-da7bf51f9531" cx="29.388" cy="84.468" r="3.712"/>
    <circle class="uuid-ec4cb112-9b4f-4aa7-846e-da7bf51f9531" cx="34.515" cy="94.722" r="3.712"/>
    <circle class="uuid-ec4cb112-9b4f-4aa7-846e-da7bf51f9531" cx="29.388" cy="104.977" r="3.712"/>
    <circle class="uuid-ec4cb112-9b4f-4aa7-846e-da7bf51f9531" cx="24.261" cy="115.231" r="3.712"/>
    <circle class="uuid-ec4cb112-9b4f-4aa7-846e-da7bf51f9531" cx="14.006" cy="94.722" r="3.712"/>
    <path class="uuid-ec4cb112-9b4f-4aa7-846e-da7bf51f9531" d="M15.421,104.977c0,2.05,1.662,3.712,3.712,3.712s3.712-1.662,3.712-3.712-1.662-3.712-3.712-3.712-3.712,1.662-3.712,3.712Z"/>
    <circle class="uuid-ec4cb112-9b4f-4aa7-846e-da7bf51f9531" cx="24.261" cy="74.213" r="3.712"/>
    <circle class="uuid-ec4cb112-9b4f-4aa7-846e-da7bf51f9531" cx="34.515" cy="135.74" r="3.712"/>
    <circle class="uuid-ec4cb112-9b4f-4aa7-846e-da7bf51f9531" cx="39.642" cy="145.995" r="3.712"/>
    <circle class="uuid-ec4cb112-9b4f-4aa7-846e-da7bf51f9531" cx="24.261" cy="156.249" r="3.712"/>
    <circle class="uuid-ec4cb112-9b4f-4aa7-846e-da7bf51f9531" cx="29.388" cy="145.995" r="3.712"/>
    <path class="uuid-ec4cb112-9b4f-4aa7-846e-da7bf51f9531" d="M22.846,145.995c0-2.05-1.662-3.712-3.712-3.712s-3.712,1.662-3.712,3.712,1.662,3.712,3.712,3.712,3.712-1.662,3.712-3.712Z"/>
    <circle class="uuid-ec4cb112-9b4f-4aa7-846e-da7bf51f9531" cx="14.006" cy="135.74" r="3.712"/>
    <circle class="uuid-ec4cb112-9b4f-4aa7-846e-da7bf51f9531" cx="14.006" cy="156.249" r="3.712"/>
    <path class="uuid-ec4cb112-9b4f-4aa7-846e-da7bf51f9531" d="M15.421,125.486c0,2.05,1.662,3.712,3.712,3.712s3.712-1.662,3.712-3.712-1.662-3.712-3.712-3.712-3.712,1.662-3.712,3.712Z"/>
    <circle class="uuid-ec4cb112-9b4f-4aa7-846e-da7bf51f9531" cx="39.642" cy="125.486" r="3.712"/>
    <circle class="uuid-ec4cb112-9b4f-4aa7-846e-da7bf51f9531" cx="34.515" cy="115.231" r="3.712"/>
    <circle class="uuid-ec4cb112-9b4f-4aa7-846e-da7bf51f9531" cx="29.388" cy="125.486" r="3.712"/>
    <circle class="uuid-ec4cb112-9b4f-4aa7-846e-da7bf51f9531" cx="24.261" cy="135.74" r="3.712"/>
    <path class="uuid-ec4cb112-9b4f-4aa7-846e-da7bf51f9531" d="M19.133,67.671c2.05,0,3.712-1.662,3.712-3.712s-1.662-3.712-3.712-3.712-3.712,1.662-3.712,3.712,1.662,3.712,3.712,3.712Z"/>
    <circle class="uuid-ec4cb112-9b4f-4aa7-846e-da7bf51f9531" cx="24.261" cy="53.705" r="3.712"/>
    <circle class="uuid-ec4cb112-9b4f-4aa7-846e-da7bf51f9531" cx="29.388" cy="63.959" r="3.712"/>
    <circle class="uuid-ec4cb112-9b4f-4aa7-846e-da7bf51f9531" cx="14.006" cy="115.231" r="3.712"/>
    <circle class="uuid-ec4cb112-9b4f-4aa7-846e-da7bf51f9531" cx="44.77" cy="135.74" r="3.712"/>
    <g>
      <path class="uuid-ec4cb112-9b4f-4aa7-846e-da7bf51f9531" d="M376.387,3.743l-19.51,14.358-87.224,64.186-23.153,14.966C242.474,42.956,197.041,0,141.734,0h-60.32c-3.814,0-7.318,1.334-10.088,3.549l-.004-.005L7.779,47.839c-4.801,2.928-7.779,8.21-7.779,13.817v107.758c0,3.637,2.004,6.937,5.231,8.614,1.417.737,2.954,1.1,4.484,1.1,1.955,0,3.898-.594,5.562-1.763l65.024-45.336c.038-.025.075-.05.112-.076v-.002s.008-.007.008-.007h0c.007-.005.015-.009.022-.014h0s.008-.005.008-.005c.019-.013.04-.023.06-.036l4.42-3.103c3.233-2.037,6.739-.285,8.512,2.417,1.898,2.884,1.183,6.87-1.54,9.235l-23.196,16.287c-.225.158-.44.326-.646.504L3.482,202.575c-2.18,1.531-3.482,4.035-3.482,6.698v30.514c0,8.926,7.262,16.188,16.188,16.188h60.321c21.605,0,42.378-6.53,60.074-18.885l63.49-44.258-.027-.039c17.355-11.621,31.066-28.272,39.046-47.845l46.652-32.522c.014-.009,2.747-1.922,2.747-1.922,1.539-1.061,3.39-1.458,5.229-1.108,1.855.354,3.449,1.419,4.49,3,1.886,2.864,1.233,6.523-1.587,8.899l-.415.442-64.646,45.28-.353.284c-2.421,2.229-3.811,5.391-3.811,8.675v63.099c0,9.319,7.581,16.9,16.9,16.9h79.151c3.856,0,7.619-1.332,10.614-3.751l63.444-44.225c1.976-1.219,3.685-2.836,5.019-4.736,1.982-2.808,3.025-6.219,3.05-9.655V18.503c.478-14.557-17.688-23.8-29.188-14.76ZM67.358,132.667c-.593-.402-1.308-.639-2.079-.639-2.05,0-3.712,1.662-3.712,3.712,0,.304.068.587.137.869l-9.418,6.566c-.647-.549-1.474-.893-2.389-.893-2.05,0-3.712,1.662-3.712,3.712,0,.449.081.878.228,1.276l-9.214,6.424c-.676-.71-1.625-1.158-2.683-1.158-2.05,0-3.712,1.662-3.712,3.712,0,.589.151,1.136.395,1.629l-9.136,6.37c-.679-.879-1.732-1.456-2.929-1.456-2.05,0-3.712,1.662-3.712,3.712,0,.727.217,1.399.577,1.971l-4.666,3.253c-1.265.889-2.468.433-2.928.194-.432-.224-1.373-.904-1.483-2.277.57.356,1.237.57,1.958.57,2.05,0,3.712-1.662,3.712-3.712s-1.662-3.712-3.712-3.712c-.737,0-1.42.221-1.997.592v-5.153c.364-.574.582-1.25.582-1.981s-.218-1.406-.582-1.98v-5.153c.578.371,1.26.592,1.997.592,2.05,0,3.712-1.662,3.712-3.712s-1.662-3.712-3.712-3.712c-.737,0-1.42.221-1.997.592v-5.153c.364-.574.582-1.25.582-1.98s-.218-1.406-.582-1.981v-5.153c.578.371,1.26.592,1.997.592,2.05,0,3.712-1.662,3.712-3.712s-1.662-3.712-3.712-3.712c-.737,0-1.42.221-1.997.592v-5.153c.364-.574.582-1.25.582-1.981s-.218-1.406-.582-1.98v-5.153c.578.371,1.26.592,1.997.592,2.05,0,3.712-1.662,3.712-3.712s-1.662-3.712-3.712-3.712c-.737,0-1.42.221-1.997.592v-5.153c.364-.574.582-1.25.582-1.98s-.218-1.406-.582-1.981v-5.153c.578.371,1.26.592,1.997.592,2.05,0,3.712-1.662,3.712-3.712s-1.662-3.712-3.712-3.712c-.737,0-1.42.221-1.997.592v-5.153c.364-.574.582-1.25.582-1.981s-.218-1.406-.582-1.98v-5.153c.578.371,1.26.592,1.997.592,2.05,0,3.712-1.662,3.712-3.712s-1.662-3.712-3.712-3.712c-.715,0-1.376.212-1.943.562.227-2.526,1.449-4.813,3.429-6.394.332,1.71,1.834,3.002,3.641,3.002,2.05,0,3.712-1.662,3.712-3.712,0-1.346-.723-2.513-1.795-3.164l9.78-6.816c.143,1.92,1.728,3.438,3.685,3.438,2.05,0,3.712-1.662,3.712-3.712,0-1.498-.892-2.781-2.17-3.368l4.928-3.435c.547-.213,1.025-.553,1.41-.983l3.807-2.653c-.003.062-.019.121-.019.184,0,2.05,1.662,3.712,3.712,3.712s3.712-1.662,3.712-3.712c0-1.663-1.102-3.055-2.609-3.527l4.378-3.051c1.321-.127,2.435-.935,2.984-2.08l3.273-2.281c-.042.222-.069.45-.069.684,0,2.05,1.662,3.712,3.712,3.712s3.712-1.662,3.712-3.712c0-1.84-1.342-3.357-3.099-3.65l4.213-2.936c.085.007.162.035.248.036v13.098c-2.025.029-3.659,1.675-3.659,3.707s1.634,3.678,3.659,3.707v13.095c-2.025.029-3.659,1.675-3.659,3.707s1.634,3.678,3.659,3.707v13.095c-2.025.029-3.659,1.675-3.659,3.707s1.634,3.678,3.659,3.707v13.095c-2.025.029-3.659,1.675-3.659,3.707s1.634,3.678,3.659,3.707v13.095c-2.025.029-3.659,1.675-3.659,3.707s1.634,3.678,3.659,3.707v5.008c.004,2.94,1.391,5.81,3.701,7.627l-1.569,1.094ZM259.743,96.886c-.018.233-.014.465-.023.698-.174-.119-.338-.251-.53-.34l.553-.358ZM162.595,210.571c-.644-.536-1.46-.872-2.364-.872-2.05,0-3.712,1.662-3.712,3.712,0,.437.076.856.215,1.245l-9.223,6.429c-.675-.696-1.616-1.132-2.662-1.132-2.05,0-3.712,1.662-3.712,3.712,0,.577.144,1.113.38,1.598l-8.871,6.183-.003.002c-.09.063-.183.121-.273.183-.68-.861-1.721-1.424-2.903-1.424-2.05,0-3.712,1.662-3.712,3.712,0,.608.16,1.173.419,1.679-3.366,1.981-6.833,3.744-10.382,5.299-.511-.27-1.086-.435-1.707-.435-1.636,0-3.009,1.065-3.503,2.534-1.011.375-2.028.73-3.05,1.071-.058-2-1.688-3.605-3.701-3.605-2.05,0-3.712,1.662-3.712,3.712,0,.7.205,1.347.542,1.906-1.64.415-3.29.796-4.953,1.126.954-.672,1.581-1.777,1.581-3.032,0-2.05-1.662-3.712-3.712-3.712s-3.712,1.662-3.712,3.712c0,1.729,1.187,3.169,2.787,3.582-5.298.877-10.69,1.337-16.143,1.337H16.188c-1.647,0-3.173-.466-4.517-1.22,1.988-.07,3.582-1.694,3.582-3.699,0-2.05-1.662-3.712-3.712-3.712-1.942,0-3.518,1.497-3.68,3.398-.607-1.235-.979-2.606-.979-4.073v-2.202c1.827-.232,3.245-1.775,3.245-3.665s-1.418-3.433-3.245-3.665v-13.179c1.827-.232,3.245-1.775,3.245-3.665s-1.418-3.433-3.245-3.665v-.473c0-.425.207-.823.555-1.068l2.47-1.734c.494.246,1.044.398,1.635.398,2.05,0,3.712-1.662,3.712-3.712,0-.139-.041-.266-.056-.4l9.652-6.777c.592.4,1.305.635,2.074.635,2.05,0,3.712-1.662,3.712-3.712,0-.31-.069-.6-.141-.887l9.377-6.584c.653.571,1.497.929,2.433.929,2.05,0,3.712-1.662,3.712-3.712,0-.477-.095-.93-.259-1.349l9.172-6.44c.68.759,1.657,1.247,2.756,1.247,2.05,0,3.712-1.662,3.712-3.712,0-.638-.176-1.23-.46-1.753l4.287-3.01v2.248c-.614.662-.997,1.542-.997,2.516s.383,1.853.997,2.516v4.938c-.65-.561-1.486-.912-2.412-.912-2.05,0-3.712,1.662-3.712,3.712s1.662,3.712,3.712,3.712c.926,0,1.762-.351,2.412-.912v4.938c-.614.662-.997,1.542-.997,2.516,0,1.008.405,1.919,1.057,2.588.186,2.575.974,4.98,2.228,7.083.012.02.025.041.037.061.831,1.381,1.86,2.625,3.051,3.698.018.017.037.033.055.05,1.817,1.622,3.994,2.838,6.403,3.513,0,0,0,0,0,0-1.491.482-2.576,1.865-2.576,3.516,0,2.05,1.662,3.712,3.712,3.712s3.712-1.662,3.712-3.712c0-1.212-.589-2.277-1.487-2.955.33.02.658.05.994.05h4.75c-.862.68-1.426,1.721-1.426,2.904,0,2.05,1.662,3.712,3.712,3.712s3.712-1.662,3.712-3.712c0-1.183-.564-2.225-1.426-2.904h5.682c-.862.68-1.426,1.721-1.426,2.904,0,2.05,1.662,3.712,3.712,3.712s3.712-1.662,3.712-3.712c0-1.183-.564-2.225-1.426-2.904h5.682c-.862.68-1.426,1.721-1.426,2.904,0,2.05,1.662,3.712,3.712,3.712s3.712-1.662,3.712-3.712c0-1.183-.564-2.225-1.426-2.904h5.682c-.862.68-1.426,1.721-1.426,2.904,0,2.05,1.662,3.712,3.712,3.712s3.712-1.662,3.712-3.712c0-1.183-.564-2.225-1.426-2.904h5.682c-.862.68-1.426,1.721-1.426,2.904,0,2.05,1.662,3.712,3.712,3.712s3.712-1.662,3.712-3.712c0-1.183-.564-2.225-1.426-2.904h5.682c-.862.68-1.426,1.721-1.426,2.904,0,2.05,1.662,3.712,3.712,3.712s3.712-1.662,3.712-3.712c0-1.187-.567-2.232-1.434-2.911,1.916-.005,3.818-.068,5.709-.174.072-.004.145-.002.217-.007-1.001.665-1.662,1.8-1.662,3.092,0,2.05,1.662,3.712,3.712,3.712s3.712-1.662,3.712-3.712c0-1.505-.901-2.792-2.188-3.374,2.563-.237,5.097-.572,7.603-.991.648-.105,1.292-.23,1.937-.347.68-.127,1.366-.236,2.042-.376,1.351-.274,2.697-.573,4.034-.904l-4.522,3.152ZM161.88,201.539c-6.616,1.397-13.377,2.059-20.146,2.086h-60.321c-5.132,0-9.307-4.175-9.307-9.306v-30.894c0-.19.055-.371.132-.539.022-.048.052-.091.08-.136.061-.098.142-.181.228-.261l87.91-61.775c6.255-4.392,7.995-12.633,3.959-18.761-.259-.394-.536-.771-.828-1.132-2.048-2.526-4.887-4.228-8.123-4.844-.45-.086-.9-.147-1.35-.188-.161-.015-.321-.013-.482-.023-.262-.015-.525-.037-.787-.037-.019,0-.037.004-.056.004-.62.002-1.234.056-1.843.141-.141.02-.28.044-.42.069-.576.099-1.147.227-1.706.4-.04.012-.08.02-.12.032-.589.188-1.162.429-1.726.697-.132.063-.262.129-.392.196-.56.289-1.111.604-1.636.973l-68.438,48.046c-1.861,1.291-4.452-.152-4.402-2.342V16.188c-.028-5.007,4.189-9.352,9.307-9.307h60.32c54.152,0,98.208,44.056,98.208,98.208v.329c0,47.248-33.541,86.801-78.061,96.121ZM97.144,120.214l9.366-6.576c.655.579,1.505.941,2.448.941,2.05,0,3.712-1.662,3.712-3.712,0-.484-.099-.943-.268-1.366l9.169-6.437c.68.768,1.662,1.261,2.768,1.261,2.05,0,3.712-1.662,3.712-3.712,0-.645-.179-1.242-.469-1.77l9.085-6.378c.67.969,1.786,1.607,3.053,1.607,2.05,0,3.712-1.662,3.712-3.712,0-.805-.263-1.546-.699-2.154l6.168-4.33c.327-.23.676-.412,1.029-.58.15-.07.302-.134.455-.192.18-.07.364-.123.549-.177.484-.137.978-.236,1.483-.269.676.711,1.626,1.16,2.685,1.16.447,0,.875-.082,1.271-.227.435.255.841.557,1.215.898.019.018.041.031.06.049.381.355.725.754,1.02,1.202.226.343.402.701.554,1.064-1.557.441-2.704,1.858-2.704,3.556,0,1.296.666,2.433,1.672,3.097-.227.29-.475.571-.745.837-.292.279-.597.55-.942.792l-7.947,5.58c0-.018.005-.034.005-.051,0-2.05-1.662-3.712-3.712-3.712s-3.712,1.662-3.712,3.712c0,1.628,1.055,2.996,2.513,3.497l-4.407,3.094c-1.229.16-2.26.913-2.806,1.97l-3.321,2.332c.036-.208.064-.42.064-.638,0-2.05-1.662-3.712-3.712-3.712s-3.712,1.662-3.712,3.712c0,1.831,1.329,3.344,3.074,3.648l-4.186,2.939c-.103-.009-.197-.044-.303-.044-1.722,0-3.156,1.178-3.576,2.768l-3.218,2.259c.156-.41.251-.85.251-1.315,0-2.05-1.662-3.712-3.712-3.712s-3.712,1.662-3.712,3.712,1.662,3.712,3.712,3.712c.019,0,.036-.005.054-.005l-4.253,2.986c-.299-.079-.603-.151-.928-.151-1.938,0-3.511,1.491-3.679,3.386l-3.601,2.528c.458-.617.738-1.374.738-2.202,0-1.823-1.317-3.332-3.05-3.645-.063-.102-.11-.209-.176-.31-.899-1.364-2.025-2.5-3.279-3.435.834-.681,1.377-1.704,1.377-2.864,0-.317-.069-.614-.145-.907ZM261.359,121.141c0-.007.002-.013.002-.02,0-2.05-1.662-3.712-3.712-3.712s-3.712,1.662-3.712,3.712c0,1.606,1.025,2.96,2.452,3.478l-4.509,3.129c-1.085.19-1.998.85-2.541,1.763l-3.409,2.366c.021-.159.049-.317.049-.482,0-1.292-.661-2.427-1.662-3.092.047-.212.083-.425.129-.637.212-.982.413-1.968.597-2.96.038-.205.087-.407.124-.612.622.47,1.388.759,2.227.759,2.05,0,3.712-1.662,3.712-3.712s-1.662-3.712-3.712-3.712c-.454,0-.884.093-1.287.243.007-.061.009-.122.016-.183.221-1.924.395-3.861.51-5.815.006-.097.008-.193.014-.29.109-1.947.174-3.905.175-5.878,0-.023.002-.045.002-.067v-.181l1.724-1.114c.617-.203,1.159-.555,1.586-1.025l3.805-2.46c.014,2.038,1.668,3.686,3.71,3.686,1.107,0,2.091-.495,2.771-1.264.437,1.447,1.076,2.834,1.901,4.14-1.833.227-3.256,1.772-3.256,3.666,0,2.05,1.662,3.712,3.712,3.712,1.784,0,3.272-1.26,3.629-2.938,1.464,1.111,3.091,1.978,4.832,2.565l-9.877,6.935ZM363.846,223.08c-.282-1.77-1.804-3.127-3.653-3.127-2.05,0-3.712,1.662-3.712,3.712,0,1.389.772,2.586,1.902,3.222l-9.874,6.882c-.081-1.979-1.698-3.562-3.697-3.562-2.05,0-3.712,1.662-3.712,3.712,0,1.542.941,2.864,2.28,3.424l-4.694,3.271c-.822.231-1.528.727-2.013,1.403l-3.564,2.484c.01-.11.033-.215.033-.327,0-2.05-1.662-3.712-3.712-3.712s-3.712,1.662-3.712,3.712c0,1.714,1.167,3.142,2.746,3.569-1.514.882-3.218,1.35-5.013,1.35h-79.151c-2.015,0-3.885-.61-5.458-1.638,1.19-.618,2.011-1.848,2.011-3.282,0-2.05-1.662-3.712-3.712-3.712-.984,0-1.872.389-2.536,1.014-.192-.773-.323-1.569-.323-2.401v-2.236c.873-.679,1.444-1.728,1.444-2.92s-.571-2.24-1.444-2.92v-4.994c.681.831,1.702,1.371,2.859,1.371,2.05,0,3.712-1.662,3.712-3.712s-1.662-3.712-3.712-3.712c-1.158,0-2.179.541-2.859,1.372v-4.994c.873-.679,1.444-1.728,1.444-2.92s-.571-2.24-1.444-2.92v-4.994c.681.831,1.702,1.372,2.859,1.372,2.05,0,3.712-1.662,3.712-3.712s-1.662-3.712-3.712-3.712c-1.158,0-2.179.541-2.859,1.371v-4.994c.873-.679,1.444-1.728,1.444-2.92s-.571-2.24-1.444-2.92v-4.994c.681.831,1.702,1.371,2.859,1.371,2.05,0,3.712-1.662,3.712-3.712s-1.662-3.712-3.712-3.712c-1.158,0-2.179.541-2.859,1.372v-4.331c0-.244.036-.484.072-.723.8-.656,1.322-1.629,1.359-2.734.006-.006.009-.013.015-.018l3.995-2.798c-.716.677-1.168,1.629-1.168,2.691,0,2.05,1.662,3.712,3.712,3.712s3.712-1.662,3.712-3.712-1.662-3.712-3.712-3.712c-.618,0-1.192.166-1.705.433l5.214-3.652c.49.241,1.034.389,1.618.389,2.05,0,3.712-1.662,3.712-3.712,0-.13-.039-.247-.053-.374l9.683-6.782c.585.386,1.285.614,2.039.614,2.05,0,3.712-1.662,3.712-3.712,0-.292-.068-.564-.133-.837l9.416-6.595c.647.547,1.472.89,2.386.89,2.05,0,3.712-1.662,3.712-3.712,0-.453-.083-.886-.231-1.287l9.195-6.441c.476.51,1.096.877,1.791,1.057v13.34c-1.605.409-2.797,1.852-2.797,3.585s1.192,3.176,2.797,3.585v13.339c-1.605.409-2.797,1.852-2.797,3.585s1.192,3.176,2.797,3.585v13.339c-1.605.409-2.797,1.852-2.797,3.585,0,1.831,1.328,3.343,3.071,3.648.369,2.091,1.124,4.044,2.188,5.796-.061.265-.132.527-.132.811,0,2.05,1.662,3.712,3.712,3.712.121,0,.23-.039.348-.051,2.888,2.302,6.537,3.689,10.51,3.689h2.238c-.862.68-1.426,1.721-1.426,2.904,0,2.05,1.662,3.712,3.712,3.712s3.712-1.662,3.712-3.712c0-1.183-.564-2.225-1.426-2.904h5.682c-.862.68-1.426,1.721-1.426,2.904,0,2.05,1.662,3.712,3.712,3.712s3.712-1.662,3.712-3.712c0-1.183-.564-2.225-1.426-2.904h5.682c-.862.68-1.426,1.721-1.426,2.904,0,2.05,1.662,3.712,3.712,3.712s3.712-1.662,3.712-3.712c0-1.183-.564-2.225-1.426-2.904h5.682c-.862.68-1.426,1.721-1.426,2.904,0,2.05,1.662,3.712,3.712,3.712s3.712-1.662,3.712-3.712c0-1.183-.564-2.225-1.426-2.904h5.682c-.862.68-1.426,1.721-1.426,2.904,0,2.05,1.662,3.712,3.712,3.712s3.712-1.662,3.712-3.712c0-1.183-.564-2.225-1.426-2.904h5.682c-.862.68-1.426,1.721-1.426,2.904,0,2.05,1.662,3.712,3.712,3.712s3.712-1.662,3.712-3.712c0-1.183-.564-2.225-1.426-2.904h5.682c-.862.68-1.426,1.721-1.426,2.904,0,1.239.613,2.33,1.547,3.004l-9.563,6.665ZM308.921,104.324c2.05,0,3.712-1.662,3.712-3.712s-1.662-3.712-3.712-3.712c-.554,0-1.076.13-1.548.348l5.07-3.56c.487.237,1.026.382,1.605.382,2.05,0,3.712-1.662,3.712-3.712,0-.128-.039-.243-.051-.367l9.674-6.793c.586.389,1.289.617,2.046.617,2.05,0,3.712-1.662,3.712-3.712,0-.298-.067-.577-.134-.854l9.395-6.597c.65.559,1.484.909,2.408.909,1.714,0,3.142-1.168,3.569-2.746.088.013.175.007.263.023,1.855.353,3.45,1.419,4.491,3,1.239,1.881,1.352,4.129.501,6.112-.082-1.978-1.699-3.559-3.697-3.559-2.05,0-3.712,1.662-3.712,3.712s1.662,3.712,3.712,3.712c.053,0,.103-.013.156-.016l-4.28,3.011c-.321-.092-.652-.165-1.003-.165-1.966,0-3.558,1.532-3.687,3.465l-3.749,2.637c.55-.647.894-1.475.894-2.39,0-2.05-1.662-3.712-3.712-3.712s-3.712,1.662-3.712,3.712,1.662,3.712,3.712,3.712c.453,0,.881-.093,1.283-.241l-4.866,3.423c-.471-.218-.99-.352-1.544-.352-2.05,0-3.712,1.662-3.712,3.712,0,.107.033.203.042.308l-9.707,6.829c-.578-.374-1.264-.594-2.005-.594-2.05,0-3.712,1.662-3.712,3.712,0,.285.066.55.127.815l-4.39,3.088c-.027-.308-.037-.617-.086-.923.917-.676,1.519-1.755,1.519-2.981,0-2.05-1.662-3.712-3.712-3.712-.293,0-.565.068-.838.132-1.032-1.225-2.255-2.241-3.619-3.03,1.68-.307,2.957-1.742,3.029-3.493l3.898-2.737c-.651.669-1.055,1.579-1.055,2.586,0,2.05,1.662,3.712,3.712,3.712ZM379.137,212.423c-.213-.767-.665-1.433-1.268-1.916h4.018l-2.75,1.916ZM398.694,193.608c.05,5.387-4.581,10.063-10.018,10.018h-79.151c-5.524,0-10.018-4.494-10.018-10.018v-63.252c0-1.6.781-3.103,2.094-4.025l53.323-37.515c6.255-4.392,7.995-12.633,3.959-18.761-2.074-3.15-5.253-5.272-8.952-5.976-.874-.166-1.75-.248-2.618-.248-2.81,0-5.545.859-7.899,2.513l-54.763,38.455c-.053.036-.109.065-.162.102l-2.585,1.815c-1.602.992-3.418,1.52-5.262,1.52-3.278,0-6.359-1.599-8.241-4.279-1.543-2.198-2.139-4.866-1.676-7.512.464-2.645,1.929-4.953,4.19-6.541L380.466,9.284c3.549-2.609,8.018-2.984,11.948-.994,3.932,1.988,6.279,5.806,6.279,10.213v175.105Z"/>
      <circle class="uuid-ec4cb112-9b4f-4aa7-846e-da7bf51f9531" cx="55.024" cy="53.705" r="3.712"/>
      <circle class="uuid-ec4cb112-9b4f-4aa7-846e-da7bf51f9531" cx="44.77" cy="53.705" r="3.712"/>
      <circle class="uuid-ec4cb112-9b4f-4aa7-846e-da7bf51f9531" cx="34.515" cy="53.705" r="3.712"/>
      <circle class="uuid-ec4cb112-9b4f-4aa7-846e-da7bf51f9531" cx="49.897" cy="43.45" r="3.712"/>
      <circle class="uuid-ec4cb112-9b4f-4aa7-846e-da7bf51f9531" cx="55.024" cy="33.196" r="3.712"/>
      <circle class="uuid-ec4cb112-9b4f-4aa7-846e-da7bf51f9531" cx="60.151" cy="43.45" r="3.712"/>
      <circle class="uuid-ec4cb112-9b4f-4aa7-846e-da7bf51f9531" cx="39.642" cy="43.45" r="3.712"/>
    </g>
  </g>
</svg>